<?xml version="1.0" encoding="UTF-8" standalone="no"?>
<!-- Created with Inkscape (http://www.inkscape.org/) -->

<svg
   xmlns:dc="http://purl.org/dc/elements/1.1/"
   xmlns:cc="http://creativecommons.org/ns#"
   xmlns:rdf="http://www.w3.org/1999/02/22-rdf-syntax-ns#"
   xmlns:svg="http://www.w3.org/2000/svg"
   xmlns="http://www.w3.org/2000/svg"
   xmlns:xlink="http://www.w3.org/1999/xlink"
   xmlns:sodipodi="http://sodipodi.sourceforge.net/DTD/sodipodi-0.dtd"
   xmlns:inkscape="http://www.inkscape.org/namespaces/inkscape"
   width="128"
   height="128"
   id="svg2"
   version="1.1"
   inkscape:version="0.48.1 r9760"
   sodipodi:docname="tobarsegais.svg"
   inkscape:export-filename="/Users/stephenc/github/tobar-segais.github.com/tobarsegais.png"
   inkscape:export-xdpi="135"
   inkscape:export-ydpi="135">
  <defs
     id="defs4">
    <linearGradient
       id="linearGradient109920">
      <stop
         style="stop-color:#ffffff;stop-opacity:1;"
         offset="0"
         id="stop109922" />
      <stop
         style="stop-color:#000000;stop-opacity:0;"
         offset="1"
         id="stop109924" />
    </linearGradient>
    <linearGradient
       inkscape:collect="always"
       xlink:href="#linearGradient109920"
       id="linearGradient109936"
       x1="-399.13608"
       y1="-103.20003"
       x2="-314.15381"
       y2="-21.829926"
       gradientUnits="userSpaceOnUse" />
    <filter
       inkscape:collect="always"
       id="filter109954"
       x="-0.1206444"
       width="1.2412888"
       y="-0.11936245"
       height="1.2387249">
      <feGaussianBlur
         inkscape:collect="always"
         stdDeviation="4.2065587"
         id="feGaussianBlur109956" />
    </filter>
  </defs>
  <sodipodi:namedview
     id="base"
     pagecolor="#ffffff"
     bordercolor="#666666"
     borderopacity="1.0"
     inkscape:pageopacity="0.0"
     inkscape:pageshadow="2"
     inkscape:zoom="5.3828125"
     inkscape:cx="64"
     inkscape:cy="64"
     inkscape:document-units="px"
     inkscape:current-layer="layer1"
     showgrid="false"
     inkscape:window-width="1337"
     inkscape:window-height="907"
     inkscape:window-x="0"
     inkscape:window-y="0"
     inkscape:window-maximized="0"
     fit-margin-top="10"
     fit-margin-left="10"
     fit-margin-right="10"
     fit-margin-bottom="10" />
  <metadata
     id="metadata7">
    <rdf:RDF>
      <cc:Work
         rdf:about="">
        <dc:format>image/svg+xml</dc:format>
        <dc:type
           rdf:resource="http://purl.org/dc/dcmitype/StillImage" />
        <dc:title></dc:title>
      </cc:Work>
    </rdf:RDF>
  </metadata>
  <g
     inkscape:label="Layer 1"
     inkscape:groupmode="layer"
     id="layer1"
     transform="translate(422.77596,129.28687)">
    <path
       sodipodi:type="arc"
       style="fill:#000000;stroke:none;stroke-width:3.09840155000000017;stroke-linecap:round;stroke-linejoin:round;stroke-miterlimit:4;stroke-opacity:1;stroke-dasharray:none;stroke-dashoffset:0"
       id="path109873"
       sodipodi:cx="190.91882"
       sodipodi:cy="244.84624"
       sodipodi:rx="168.29141"
       sodipodi:ry="168.29141"
       d="m 359.21024,244.84624 a 168.29141,168.29141 0 1 1 -336.582829,0 168.29141,168.29141 0 1 1 336.582829,0 z"
       transform="matrix(0.32274706,0,0,0.32274706,-420.39445,-143.5256)" />
    <path
       transform="matrix(0.30737815,0,0,0.30737815,-417.46024,-139.76258)"
       d="m 359.21024,244.84624 a 168.29141,168.29141 0 1 1 -336.582829,0 168.29141,168.29141 0 1 1 336.582829,0 z"
       sodipodi:ry="168.29141"
       sodipodi:rx="168.29141"
       sodipodi:cy="244.84624"
       sodipodi:cx="190.91882"
       id="path109871"
       style="fill:#ffffff;stroke:none;stroke-width:3.25332140999999986;stroke-linecap:round;stroke-linejoin:round;stroke-miterlimit:4;stroke-opacity:1;stroke-dasharray:none;stroke-dashoffset:0"
       sodipodi:type="arc" />
    <path
       sodipodi:type="arc"
       style="fill:#000000;stroke:none;stroke-width:3.41598772999999989;stroke-linecap:round;stroke-linejoin:round;stroke-miterlimit:4;stroke-opacity:1;stroke-dasharray:none;stroke-dashoffset:0"
       id="path109869"
       sodipodi:cx="190.91882"
       sodipodi:cy="244.84624"
       sodipodi:rx="168.29141"
       sodipodi:ry="168.29141"
       d="m 359.21024,244.84624 a 168.29141,168.29141 0 1 1 -336.582829,0 168.29141,168.29141 0 1 1 336.582829,0 z"
       transform="matrix(0.2927411,0,0,0.2927411,-414.66575,-136.17875)" />
    <path
       sodipodi:nodetypes="scccsscssscscsssscsccsccssssccscsccccscccccccsccsccccscscccccscccsccsccccscccccsccscccscccccccccsccsccccscsccscccsscccccscscsssccscccc"
       inkscape:connector-curvature="0"
       id="path109918"
       d="m -355.92631,-106.72765 c -7.27133,-0.72186 -15.87394,1.72323 -25.13065,8.931013 -16.85588,4.336 -24.13646,23.087378 -18.34329,38.535899 0.0106,0.02813 0.0261,0.05125 0.0368,0.07928 -0.69567,4.367776 0.15136,9.445514 2.07692,14.021252 2.26869,5.391159 5.97435,10.231944 11.21479,11.098896 0.67945,0.112401 1.3262,0.103805 1.98993,0.155434 0.24962,0.309727 0.48435,0.628988 0.75543,0.921346 8.96243,9.665762 24.22001,13.002368 37.84414,9.152744 13.62412,-3.849635 25.65807,-15.22176 27.73234,-34.607324 0.23075,-2.156574 -0.15482,-4.223829 -0.93524,-6.186399 1.70972,-6.127172 0.1905,-13.180801 -3.18403,-19.000329 -3.37282,-5.816572 -8.73093,-10.511536 -15.0998,-11.309255 -1.91478,-2.742432 -4.26266,-5.271798 -7.10128,-7.303648 -3.35653,-2.40259 -7.34752,-4.04132 -11.85607,-4.48891 z m -0.46095,3.76043 c 3.82044,0.40883 7.16889,1.87666 10.03434,3.927725 1.66111,1.189011 3.11225,2.635867 4.41479,4.195034 -3.40258,0.554869 -6.82515,2.062272 -9.30946,4.794505 -3.21603,3.536982 -4.36131,9.168091 -1.52154,16.06783 -2.73376,2.5407 -4.53957,5.989348 -5.65066,9.436914 -1.9591,-1.416264 -4.15868,-2.896465 -6.82745,-3.932557 -3.08102,-1.196128 -6.73552,-1.612582 -10.67989,-0.544152 -1.6189,-2.536195 -3.56284,-4.522108 -4.76109,-6.414598 4.34502,-1.61199 11.05121,-5.457924 17.0285,-9.361357 3.22449,-2.105735 6.1271,-4.171694 8.14828,-5.884035 1.01058,-0.856176 1.79362,-1.586478 2.37669,-2.394838 0.29154,-0.40419 0.59567,-0.821704 0.69172,-1.602881 0.096,-0.781177 -0.55701,-2.035969 -1.29908,-2.4036 -0.29384,-0.145694 -0.62449,-0.216385 -0.95221,-0.203578 -3.57786,0.157917 -8.55433,-0.304921 -13.21742,-0.695915 -1.91657,-0.160714 -3.68287,-0.301516 -5.40493,-0.391281 6.41245,-3.842276 12.07124,-5.113106 16.92941,-4.593226 z m -18.31425,8.522409 c 1.8975,0.05312 3.18913,0.806161 4.83865,2.388863 1.02353,0.83659 0.3395,4.353179 -1.82313,6.908141 -5.75729,3.759769 -6.75463,4.599463 -10.24269,5.96021 -0.45951,-2.560134 -0.78547,-5.339448 -0.5734,-7.877051 0.25428,-3.042649 1.18116,-5.522009 3.01885,-7.010357 0.0502,-0.04066 0.09,-0.07292 0.14015,-0.113258 0.1005,-0.02251 0.19406,-0.04837 0.29532,-0.06965 0.91614,-0.192753 2.44876,-0.240205 4.34625,-0.186894 z m 35.43174,3.334153 c 2.49224,4.220258 3.75892,8.805278 3.68686,12.444985 -4.65354,-0.976627 -9.6794,0.09011 -13.77577,2.377331 -1.99838,-5.371089 -1.08678,-8.791947 1.02607,-11.115652 2.15672,-2.371951 5.82969,-3.610921 9.06284,-3.706664 z m -46.20279,-0.732871 c -0.49184,1.431703 -0.82355,2.934627 -0.95021,4.450169 -0.27954,3.344968 0.16522,6.746152 0.75462,9.720313 -4.8775,2.392171 -8.8721,6.828275 -11.4296,11.83091 -1.67935,-10.284303 2.59631,-20.968915 11.62519,-26.001392 z m 51.37243,1.821251 c 3.46218,1.533391 6.60409,4.531611 8.83014,8.370533 2.10093,3.623144 3.20186,7.786065 3.24119,11.630385 -0.11359,-0.133839 -0.20388,-0.28853 -0.32023,-0.419896 -2.63373,-2.973389 -5.99263,-5.330274 -9.36217,-6.88035 0.39641,-3.930564 -0.4256,-8.402152 -2.38893,-12.700672 z m -3.85664,15.00294 c 0.57655,0.04256 1.08555,0.228761 1.63261,0.340615 -0.8824,2.666152 -2.47571,5.306312 -4.18087,7.973899 -1.46295,-1.48513 -3.051,-2.734435 -4.48303,-3.864599 -0.96129,-0.758661 -1.78116,-1.492667 -2.47638,-2.261742 2.81739,-1.544131 6.2987,-2.424876 9.50767,-2.18817 z m 5.36869,1.641638 c 2.61203,1.333279 5.2694,3.269253 7.28898,5.549304 0.9944,1.122636 1.76543,2.312464 2.38154,3.510398 -1.42391,3.555037 -4.5366,6.398315 -8.0588,8.193922 -0.59657,-1.066478 -1.29259,-2.076593 -2.08423,-2.973846 -1.51768,-1.720158 -3.13357,-3.26366 -4.5759,-4.708089 1.9003,-2.91429 3.88068,-6.003096 5.04841,-9.571689 z m -51.8229,-0.446019 c 1.3487,2.567674 3.30796,4.503132 4.70417,6.354286 -2.49481,1.587759 -4.3261,3.934954 -5.6232,6.465608 -1.0734,2.094217 -1.73849,4.284466 -2.25832,6.406694 -3.28908,-1.367257 -6.34248,-3.122105 -7.64631,-5.364121 0.0264,-0.09324 0.0192,-0.221619 0.0481,-0.311459 1.7748,-5.519974 5.97599,-10.912549 10.77553,-13.551008 z m 33.80678,3.404383 c 0.97735,1.125884 2.09209,2.088359 3.17999,2.94694 1.81989,1.436266 3.54681,2.703678 4.74975,4.106977 -1.65109,2.268454 -3.89914,4.444521 -5.87689,7.123065 -1.04226,-0.387641 -2.07961,-1.106562 -3.23832,-2.283827 -0.97405,-0.98964 -2.05762,-2.147618 -3.24852,-3.281333 0.84959,-3.173574 2.33959,-6.334085 4.43399,-8.611822 z m -20.39198,4.649295 c 1.51965,0.0699 2.92828,0.42826 4.31285,0.96579 2.64079,1.025222 5.05819,2.734843 7.24538,4.355281 -0.004,0.01933 -0.0178,0.03872 -0.0212,0.05802 -0.56524,3.168943 -3.45399,5.971065 -7.33282,7.432829 -1.66577,-4.668263 -4.42457,-8.678009 -6.92829,-12.59759 0.93606,-0.169754 1.85853,-0.254151 2.72412,-0.214348 z m -6.53777,1.589879 c 2.5704,4.141712 5.25122,8.109513 6.82296,12.183916 -4.32227,0.567313 -8.89397,0.06655 -13.14239,-1.260785 0.471,-2.016094 1.07651,-4.084094 2.02983,-5.94404 1.09111,-2.128776 2.50737,-3.864667 4.2896,-4.979091 z m 37.62978,3.730259 c 1.37532,1.354199 2.76622,2.666969 3.89409,3.945303 0.55099,0.624508 0.81025,1.170579 1.18156,1.735382 -2.80439,0.514261 -6.03735,0.05165 -9.40829,-0.565964 1.3734,-1.589658 2.91059,-3.231349 4.33264,-5.114721 z m 18.23133,1.760228 c -1.97015,17.865441 -12.63694,27.609355 -24.89243,31.072264 -11.4676,3.240283 -24.22543,0.641435 -32.17277,-6.485551 3.00042,-0.516924 5.7018,-1.613264 7.85637,-3.233252 3.76863,-2.833557 5.944,-7.24471 5.11409,-11.837963 4.358,-1.522308 8.00478,-4.377625 9.54813,-8.307184 0.53148,0.563589 1.06503,1.133232 1.63205,1.709329 1.06487,1.081922 2.27946,2.144692 3.72929,2.88465 -4.14727,6.468822 -10.90649,14.308381 -13.78192,20.131558 -0.50086,1.019824 0.10489,2.419497 1.19119,2.752434 10.62213,3.272391 18.52674,1.365754 23.86501,-3.043043 5.33828,-4.408793 8.10813,-10.97873 9.65824,-16.829236 0.22763,-0.859136 0.27307,-1.691335 0.20924,-2.496763 3.06295,-1.453639 5.91607,-3.542747 8.04351,-6.317243 z m -73.91628,4.212628 c 2.22121,1.734048 4.81063,2.927499 7.22103,3.846193 -0.534,4.021523 0.0511,8.337061 1.69976,12.191865 -2.63887,-1.121976 -5.28989,-4.20589 -6.99538,-8.258698 -1.05539,-2.507951 -1.69515,-5.242896 -1.92541,-7.77936 z m 49.24773,6.315592 c 4.11549,-2.212102 8.0466,-1.697444 12.59195,-2.68538 -1.43708,5.404277 -3.81565,10.213413 -8.13608,12.884476 -2.91833,1.804238 -4.20098,0.743861 -6.01539,-0.917364 -2.3139,-2.118561 -1.46016,-7.658632 1.55952,-9.281732 z m -38.1734,-1.164945 c 4.78432,1.425755 9.93322,1.930431 14.90467,1.174987 0.38735,2.87405 -0.90202,5.629978 -3.62477,7.677166 -2.13965,1.608773 -5.12783,2.685309 -8.58631,2.781917 -0.006,8.6e-5 -0.0133,-7.49e-4 -0.0195,-7.49e-4 -2.07056,-3.313663 -3.01626,-7.664239 -2.67405,-11.633508 z"
       style="font-size:medium;font-style:normal;font-variant:normal;font-weight:normal;font-stretch:normal;text-indent:0;text-align:start;text-decoration:none;line-height:normal;letter-spacing:normal;word-spacing:normal;text-transform:none;direction:ltr;block-progression:tb;writing-mode:lr-tb;text-anchor:start;baseline-shift:baseline;color:#000000;fill:url(#linearGradient109936);fill-opacity:1;stroke:none;stroke-width:6.30000019000000044;marker:none;visibility:visible;display:inline;overflow:visible;enable-background:accumulate;font-family:Sans;-inkscape-font-specification:Sans;opacity:0.71971965000000004;filter:url(#filter109954)" />
    <path
       style="font-size:medium;font-style:normal;font-variant:normal;font-weight:normal;font-stretch:normal;text-indent:0;text-align:start;text-decoration:none;line-height:normal;letter-spacing:normal;word-spacing:normal;text-transform:none;direction:ltr;block-progression:tb;writing-mode:lr-tb;text-anchor:start;baseline-shift:baseline;color:#000000;fill:#ffd700;fill-opacity:1;stroke:none;stroke-width:6.30000019000000044;marker:none;visibility:visible;display:inline;overflow:visible;enable-background:accumulate;font-family:Sans;-inkscape-font-specification:Sans"
       d="m -355.92631,-106.72765 c -7.27133,-0.72186 -15.87394,1.72323 -25.13065,8.931013 -16.85588,4.336 -24.13646,23.087378 -18.34329,38.535899 0.0106,0.02813 0.0261,0.05125 0.0368,0.07928 -0.69567,4.367776 0.15136,9.445514 2.07692,14.021252 2.26869,5.391159 5.97435,10.231944 11.21479,11.098896 0.67945,0.112401 1.3262,0.103805 1.98993,0.155434 0.24962,0.309727 0.48435,0.628988 0.75543,0.921346 8.96243,9.665762 24.22001,13.002368 37.84414,9.152744 13.62412,-3.849635 25.65807,-15.22176 27.73234,-34.607324 0.23075,-2.156574 -0.15482,-4.223829 -0.93524,-6.186399 1.70972,-6.127172 0.1905,-13.180801 -3.18403,-19.000329 -3.37282,-5.816572 -8.73093,-10.511536 -15.0998,-11.309255 -1.91478,-2.742432 -4.26266,-5.271798 -7.10128,-7.303648 -3.35653,-2.40259 -7.34752,-4.04132 -11.85607,-4.48891 z m -0.46095,3.76043 c 3.82044,0.40883 7.16889,1.87666 10.03434,3.927725 1.66111,1.189011 3.11225,2.635867 4.41479,4.195034 -3.40258,0.554869 -6.82515,2.062272 -9.30946,4.794505 -3.21603,3.536982 -4.36131,9.168091 -1.52154,16.06783 -2.73376,2.5407 -4.53957,5.989348 -5.65066,9.436914 -1.9591,-1.416264 -4.15868,-2.896465 -6.82745,-3.932557 -3.08102,-1.196128 -6.73552,-1.612582 -10.67989,-0.544152 -1.6189,-2.536195 -3.56284,-4.522108 -4.76109,-6.414598 4.34502,-1.61199 11.05121,-5.457924 17.0285,-9.361357 3.22449,-2.105735 6.1271,-4.171694 8.14828,-5.884035 1.01058,-0.856176 1.79362,-1.586478 2.37669,-2.394838 0.29154,-0.40419 0.59567,-0.821704 0.69172,-1.602881 0.096,-0.781177 -0.55701,-2.035969 -1.29908,-2.4036 -0.29384,-0.145694 -0.62449,-0.216385 -0.95221,-0.203578 -3.57786,0.157917 -8.55433,-0.304921 -13.21742,-0.695915 -1.91657,-0.160714 -3.68287,-0.301516 -5.40493,-0.391281 6.41245,-3.842276 12.07124,-5.113106 16.92941,-4.593226 z m -18.31425,8.522409 c 1.8975,0.05312 3.18913,0.806161 4.83865,2.388863 1.02353,0.83659 0.3395,4.353179 -1.82313,6.908141 -5.75729,3.759769 -6.75463,4.599463 -10.24269,5.96021 -0.45951,-2.560134 -0.78547,-5.339448 -0.5734,-7.877051 0.25428,-3.042649 1.18116,-5.522009 3.01885,-7.010357 0.0502,-0.04066 0.09,-0.07292 0.14015,-0.113258 0.1005,-0.02251 0.19406,-0.04837 0.29532,-0.06965 0.91614,-0.192753 2.44876,-0.240205 4.34625,-0.186894 z m 35.43174,3.334153 c 2.49224,4.220258 3.75892,8.805278 3.68686,12.444985 -4.65354,-0.976627 -9.6794,0.09011 -13.77577,2.377331 -1.99838,-5.371089 -1.08678,-8.791947 1.02607,-11.115652 2.15672,-2.371951 5.82969,-3.610921 9.06284,-3.706664 z m -46.20279,-0.732871 c -0.49184,1.431703 -0.82355,2.934627 -0.95021,4.450169 -0.27954,3.344968 0.16522,6.746152 0.75462,9.720313 -4.8775,2.392171 -8.8721,6.828275 -11.4296,11.83091 -1.67935,-10.284303 2.59631,-20.968915 11.62519,-26.001392 z m 51.37243,1.821251 c 3.46218,1.533391 6.60409,4.531611 8.83014,8.370533 2.10093,3.623144 3.20186,7.786065 3.24119,11.630385 -0.11359,-0.133839 -0.20388,-0.28853 -0.32023,-0.419896 -2.63373,-2.973389 -5.99263,-5.330274 -9.36217,-6.88035 0.39641,-3.930564 -0.4256,-8.402152 -2.38893,-12.700672 z m -3.85664,15.00294 c 0.57655,0.04256 1.08555,0.228761 1.63261,0.340615 -0.8824,2.666152 -2.47571,5.306312 -4.18087,7.973899 -1.46295,-1.48513 -3.051,-2.734435 -4.48303,-3.864599 -0.96129,-0.758661 -1.78116,-1.492667 -2.47638,-2.261742 2.81739,-1.544131 6.2987,-2.424876 9.50767,-2.18817 z m 5.36869,1.641638 c 2.61203,1.333279 5.2694,3.269253 7.28898,5.549304 0.9944,1.122636 1.76543,2.312464 2.38154,3.510398 -1.42391,3.555037 -4.5366,6.398315 -8.0588,8.193922 -0.59657,-1.066478 -1.29259,-2.076593 -2.08423,-2.973846 -1.51768,-1.720158 -3.13357,-3.26366 -4.5759,-4.708089 1.9003,-2.91429 3.88068,-6.003096 5.04841,-9.571689 z m -51.8229,-0.446019 c 1.3487,2.567674 3.30796,4.503132 4.70417,6.354286 -2.49481,1.587759 -4.3261,3.934954 -5.6232,6.465608 -1.0734,2.094217 -1.73849,4.284466 -2.25832,6.406694 -3.28908,-1.367257 -6.34248,-3.122105 -7.64631,-5.364121 0.0264,-0.09324 0.0192,-0.221619 0.0481,-0.311459 1.7748,-5.519974 5.97599,-10.912549 10.77553,-13.551008 z m 33.80678,3.404383 c 0.97735,1.125884 2.09209,2.088359 3.17999,2.94694 1.81989,1.436266 3.54681,2.703678 4.74975,4.106977 -1.65109,2.268454 -3.89914,4.444521 -5.87689,7.123065 -1.04226,-0.387641 -2.07961,-1.106562 -3.23832,-2.283827 -0.97405,-0.98964 -2.05762,-2.147618 -3.24852,-3.281333 0.84959,-3.173574 2.33959,-6.334085 4.43399,-8.611822 z m -20.39198,4.649295 c 1.51965,0.0699 2.92828,0.42826 4.31285,0.96579 2.64079,1.025222 5.05819,2.734843 7.24538,4.355281 -0.004,0.01933 -0.0178,0.03872 -0.0212,0.05802 -0.56524,3.168943 -3.45399,5.971065 -7.33282,7.432829 -1.66577,-4.668263 -4.42457,-8.678009 -6.92829,-12.59759 0.93606,-0.169754 1.85853,-0.254151 2.72412,-0.214348 z m -6.53777,1.589879 c 2.5704,4.141712 5.25122,8.109513 6.82296,12.183916 -4.32227,0.567313 -8.89397,0.06655 -13.14239,-1.260785 0.471,-2.016094 1.07651,-4.084094 2.02983,-5.94404 1.09111,-2.128776 2.50737,-3.864667 4.2896,-4.979091 z m 37.62978,3.730259 c 1.37532,1.354199 2.76622,2.666969 3.89409,3.945303 0.55099,0.624508 0.81025,1.170579 1.18156,1.735382 -2.80439,0.514261 -6.03735,0.05165 -9.40829,-0.565964 1.3734,-1.589658 2.91059,-3.231349 4.33264,-5.114721 z m 18.23133,1.760228 c -1.97015,17.865441 -12.63694,27.609355 -24.89243,31.072264 -11.4676,3.240283 -24.22543,0.641435 -32.17277,-6.485551 3.00042,-0.516924 5.7018,-1.613264 7.85637,-3.233252 3.76863,-2.833557 5.944,-7.24471 5.11409,-11.837963 4.358,-1.522308 8.00478,-4.377625 9.54813,-8.307184 0.53148,0.563589 1.06503,1.133232 1.63205,1.709329 1.06487,1.081922 2.27946,2.144692 3.72929,2.88465 -4.14727,6.468822 -10.90649,14.308381 -13.78192,20.131558 -0.50086,1.019824 0.10489,2.419497 1.19119,2.752434 10.62213,3.272391 18.52674,1.365754 23.86501,-3.043043 5.33828,-4.408793 8.10813,-10.97873 9.65824,-16.829236 0.22763,-0.859136 0.27307,-1.691335 0.20924,-2.496763 3.06295,-1.453639 5.91607,-3.542747 8.04351,-6.317243 z m -73.91628,4.212628 c 2.22121,1.734048 4.81063,2.927499 7.22103,3.846193 -0.534,4.021523 0.0511,8.337061 1.69976,12.191865 -2.63887,-1.121976 -5.28989,-4.20589 -6.99538,-8.258698 -1.05539,-2.507951 -1.69515,-5.242896 -1.92541,-7.77936 z m 49.24773,6.315592 c 4.11549,-2.212102 8.0466,-1.697444 12.59195,-2.68538 -1.43708,5.404277 -3.81565,10.213413 -8.13608,12.884476 -2.91833,1.804238 -4.20098,0.743861 -6.01539,-0.917364 -2.3139,-2.118561 -1.46016,-7.658632 1.55952,-9.281732 z m -38.1734,-1.164945 c 4.78432,1.425755 9.93322,1.930431 14.90467,1.174987 0.38735,2.87405 -0.90202,5.629978 -3.62477,7.677166 -2.13965,1.608773 -5.12783,2.685309 -8.58631,2.781917 -0.006,8.6e-5 -0.0133,-7.49e-4 -0.0195,-7.49e-4 -2.07056,-3.313663 -3.01626,-7.664239 -2.67405,-11.633508 z"
       id="path109057"
       inkscape:connector-curvature="0"
       sodipodi:nodetypes="scccsscssscscsssscsccsccssssccscsccccscccccccsccsccccscscccccscccsccsccccscccccsccscccscccccccccsccsccccscsccscccsscccccscscsssccscccc" />
    <g
       id="g109855"
       transform="matrix(0.44923063,-0.34525608,0.36087635,0.429786,-667.46028,-208.57909)"
       style="fill:#ffa07a;fill-opacity:1">
      <path
         style="fill:#ffa07a;stroke:#000000;stroke-width:1.77424431000000005px;stroke-linecap:butt;stroke-linejoin:miter;stroke-opacity:1;fill-opacity:1"
         d="m 270.99867,454.14984 c -11.4891,3.40687 -19.54048,9.22014 -26.33972,15.90991 l -41.0122,41.71929 c -1.94846,-3.95901 -1.82173,-8.47448 -1.41421,-12.90469 -4.57401,5.74483 -5.82649,8.84986 -6.71751,26.33972 l 53.56333,48.26004 1.41422,-37.47665 c -8.66379,-2.71015 -11.92714,-7.87525 -16.97057,-11.49049 l 7.24785,-30.40559 20.32932,-17.32412 24.57196,-0.7071 c -1.24112,-4.40101 -0.8059,-8.24323 -0.70711,-12.1976 l 13.78859,-0.35355 18.03122,9.19239 c 0,0 -0.7256,5.63673 -2.65165,7.42462 -3.28578,3.05007 -7.16988,1.22988 -9.19239,0.88388 -3.03048,-0.51843 -5.76468,-4.52074 -7.42462,-4.06586 -1.93787,0.87095 -1.70569,4.05119 -0.35356,6.36396 1.30655,2.2348 3.35268,4.38742 5.83363,5.12652 6.38918,1.9034 19.799,-2.82842 19.799,-2.82842 l -1.06066,-15.90991 -20.85965,-7.60139 -22.98097,0.53033 -7.24785,1.06066 z"
         id="path109857"
         inkscape:connector-curvature="0"
         sodipodi:nodetypes="ccccccccccccccsscsacccccc" />
      <path
         style="fill:#ffa07a;stroke:#000000;stroke-width:1.77424431000000005px;stroke-linecap:butt;stroke-linejoin:miter;stroke-opacity:1;fill-opacity:1"
         d="m 368.5,518.86218 c -8.82682,-19.42113 -18.39402,-31.6895 -31,-42.5 -16.34573,-14.0176 -38.27621,-18.25214 -58.5,-16.46967 -18.76849,1.6542 -37.04063,10.42695 -52.26256,21.53033 -11.91014,8.68765 -22.75173,20.23066 -28.53033,33.79289 -5.2743,12.37863 -7.61927,27.13085 -4.20711,40.14645 4.81987,18.38529 17.80487,35.08256 33,46.5 12.55754,9.43559 28.91578,13.53678 44.5,15.5 9.7912,1.23344 25.9204,-0.41761 29.5,-2.5 l -6,-1 -11,-4.5 -9,0 11,-2 9.05546,3.43934 c 3.44189,1.30726 10.04344,2.11479 12.23743,-1.35355 1.52441,-2.40984 -1.17752,-5.73596 -2.79289,-8.08579 -7.7261,-11.23893 -20.62099,-17.86932 -31.32322,-26.32322 C 264.97707,568.56185 254.3316,564.67475 248,556.36218 c -6.71407,-8.81471 -12.34477,-19.92485 -12,-31 0.4339,-13.93858 7.90903,-27.87649 17.5,-38 8.28291,-8.74282 19.46944,-17.17066 32.5,-21 8.26106,-2.42771 19.52179,-0.1429 25,6.5 2.30523,2.79533 2.42832,7.67372 0.68198,10.84835 -1.60149,2.91131 -8.87112,2.16626 -8.73744,4.7981 31.51643,3.65018 31.85459,7.78696 45.52082,16.33883 6.89257,4.31314 11.62446,14.23166 17.44885,17.04505 1.19569,0.57756 3.13522,-1.82146 2.58579,-3.03033 z"
         id="path109859"
         inkscape:connector-curvature="0"
         sodipodi:nodetypes="sssaaaaacccccsaaaaassaacass" />
      <path
         style="fill:#ffa07a;stroke:#000000;stroke-width:1.77424431000000005px;stroke-linecap:butt;stroke-linejoin:miter;stroke-opacity:1;fill-opacity:1"
         d="m 259.33141,602.11194 c -9.93315,2.51278 -19.86914,5.02129 -31.64303,4.77297 6.45471,4.87648 12.88773,6.39549 19.799,6.18718 3.15039,-0.095 6.59533,-1.14499 8.83883,-3.35875 1.93942,-1.91371 2.00347,-5.0676 3.0052,-7.6014 z"
         id="path109861"
         inkscape:connector-curvature="0"
         sodipodi:nodetypes="ccaac" />
      <path
         style="fill:#ffa07a;stroke:#000000;stroke-width:1.77424431000000005px;stroke-linecap:butt;stroke-linejoin:miter;stroke-opacity:1;fill-opacity:1"
         d="m 275.41809,599.81384 c -2.7695,-2.35702 -5.539,-4.71405 -8.3085,-7.07107 -0.8612,-3.23334 1.03805,-5.54654 5.83363,-6.89429 3.94081,1.70524 6.58464,2.76199 5.83363,2.12132 2.11867,0.17589 4.43915,0.41906 7.95495,1.06066 2.2981,2.2981 4.59619,4.59619 6.89429,6.89429"
         id="path109863"
         inkscape:connector-curvature="0"
         sodipodi:nodetypes="cccccc" />
      <path
         sodipodi:type="arc"
         style="fill:#ffa07a;stroke:#000000;stroke-width:11.78533267999999978;stroke-linecap:round;stroke-linejoin:round;stroke-miterlimit:4;stroke-opacity:1;stroke-dasharray:none;stroke-dashoffset:0;fill-opacity:1"
         id="path109865"
         sodipodi:cx="254.64684"
         sodipodi:cy="622.26447"
         sodipodi:rx="24.660349"
         sodipodi:ry="29.521708"
         d="m 279.30718,622.26447 c 0,16.30438 -11.04081,29.5217 -24.66034,29.5217 -13.61954,0 -24.66035,-13.21732 -24.66035,-29.5217 0,-16.30439 11.04081,-29.52171 24.66035,-29.52171 13.61953,0 24.66034,13.21732 24.66034,29.52171 z"
         transform="matrix(0.17204301,0,0,0.13173651,239.73962,513.94979)" />
      <path
         transform="matrix(0.05017921,0,0,0.03892214,270.59508,571.43971)"
         d="m 279.30718,622.26447 c 0,16.30438 -11.04081,29.5217 -24.66034,29.5217 -13.61954,0 -24.66035,-13.21732 -24.66035,-29.5217 0,-16.30439 11.04081,-29.52171 24.66035,-29.52171 13.61953,0 24.66034,13.21732 24.66034,29.52171 z"
         sodipodi:ry="29.521708"
         sodipodi:rx="24.660349"
         sodipodi:cy="622.26447"
         sodipodi:cx="254.64684"
         id="path109867"
         style="fill:#ffa07a;fill-opacity:1;stroke:#000000;stroke-width:40.14701079999999678;stroke-linecap:round;stroke-linejoin:round;stroke-miterlimit:4;stroke-opacity:1;stroke-dasharray:none;stroke-dashoffset:0"
         sodipodi:type="arc" />
    </g>
  </g>
</svg>
